<?xml version="1.0" encoding="UTF-8" standalone="no"?>
<!DOCTYPE svg PUBLIC "-//W3C//DTD SVG 1.1//EN" "http://www.w3.org/Graphics/SVG/1.1/DTD/svg11.dtd">
<svg width="100%" height="100%" viewBox="0 0 1391 1617" version="1.1" xmlns="http://www.w3.org/2000/svg" xmlns:xlink="http://www.w3.org/1999/xlink" xml:space="preserve" xmlns:serif="http://www.serif.com/" style="fill-rule:evenodd;clip-rule:evenodd;stroke-linejoin:round;stroke-miterlimit:2;">
    <g transform="matrix(1,0,0,1,-6951.02579,-9206.44025)">
        <g transform="matrix(1,0,0,1,-0.89251,-0.346095)">
            <g id="Gemini_Generated_Image_uppbdhuppbdhuppb.png" transform="matrix(2.116279,0,0,2.116279,6678.676421,9100.9874)">
                <g transform="matrix(1.813547,0,0,1.813547,-470.765821,-349.752374)">
                    <path d="M446.451,609.592C332.693,535.241 331.187,535.755 331.086,532.514C330.622,517.64 330.992,517.705 331.07,346.5C331.085,313.856 329.79,311.946 332.53,312.168C332.898,312.197 379.001,342.227 381.003,343.938C382.664,345.356 381.077,501.09 381.702,507.48C381.945,509.961 382.497,510.071 443.759,550.082C448.559,553.217 446.333,547.184 446.264,478.474C446.259,473.335 451.971,480.515 494.198,506.981C498.195,509.486 497.042,513.48 496.992,534.503C496.739,639.724 498.048,641.756 495.495,641.536C494.873,641.483 464.898,622.213 446.451,609.592Z" style="fill:rgb(213,87,29);"/>
                    <path d="M578.42,551.305C608.749,531.551 608.72,531.675 639.233,512.088C642.884,509.745 642.028,508.776 642.105,477.501C642.102,434.835 642.099,392.169 642.096,349.503C642.102,341.534 644.574,342.537 651.237,338.108C653.235,336.78 691.117,311.934 691.539,311.944C693.658,311.997 692.555,313.586 692.698,454.501C692.771,527.26 693.561,527.257 692.795,533.533C692.403,536.743 679.396,542.916 635.398,572.347C608.457,590.369 582.187,606.72 577.51,609.631C577.359,609.332 576.728,609.559 576.577,609.261C576.571,609.249 576.744,609.249 576.65,577.499C576.578,553.455 576.435,553.066 578.42,551.305Z" style="fill:rgb(240,150,77);"/>
                    <path d="M446.266,394.503C446.181,354.025 446.541,353.746 445.427,352.568C443.985,351.043 442.332,350.45 423.245,337.892C332.238,278.015 331.639,278.276 331.233,276.564C330.88,275.076 331.134,226.795 331.156,222.468C331.188,216.466 335.111,222.087 403.422,266.62C433.341,286.076 463.26,305.533 493.179,324.989C497.955,328.113 497.217,329.183 497.237,349.5C497.25,363.296 498.225,364.42 493.152,368.01C489.416,370.654 449.606,396.665 448.425,397.338C446.273,398.565 446.593,396.947 446.266,394.503Z" style="fill:rgb(237,155,100);"/>
                    <path d="M574.164,297.063C690.52,220.78 690.451,220.393 691.5,220.423C692.728,220.457 692.702,225.083 692.7,225.5C692.404,276.965 693.137,277.474 691.553,278.567C674.866,290.084 674.426,289.225 657.568,300.603C609.268,333.2 585.783,346.291 577.807,353.636C577.604,353.214 576.506,353.625 576.781,351.5C576.793,351.407 576.862,350.872 576.841,350.336C575.824,324.865 577.181,324.939 575.855,299.497C575.752,297.533 574.21,297.13 574.164,297.063Z" style="fill:rgb(227,105,32);"/>
                    <path d="M578.42,551.305C576.435,553.066 576.578,553.455 576.65,577.499C576.744,609.249 576.571,609.249 576.577,609.261C576.728,609.559 577.359,609.332 577.51,609.631C571.509,613.894 529.147,641.018 528.446,641.326C526.36,642.241 526.834,640.09 526.797,577.499C526.794,572.14 526.758,512.554 526.871,510.516C527.064,507.04 544.781,497.813 574.63,477.724C576.486,476.474 577.363,477.606 577.377,478.519C577.887,510.948 577.272,542.914 577.165,548.513C577.121,550.804 577.816,550.499 578.42,551.305Z" style="fill:rgb(242,179,132);"/>
                    <path d="M486.308,467.499C486.514,426.071 486.681,426.089 486.532,422.492C486.355,418.196 469.064,432.925 466.482,432.537C465.056,432.323 465.446,431.669 465.915,414.519C466.012,410.978 470.964,409.553 502.417,388.375C509.904,383.334 510.508,380.901 516.238,384.871C533.803,397.038 554.529,409.901 557.066,411.917C558.234,412.846 557.893,413.118 557.995,430.551C558.027,435.844 555.095,431.262 539.424,421.649C539.122,421.464 537.159,420.26 537.251,425.503C537.269,426.479 537.624,469.389 537.573,469.532C536.428,472.793 514.657,454.077 511.577,454.865C508.479,455.658 490.485,468.628 488.709,469.909C486.658,471.387 486.556,469.929 486.308,467.499Z" style="fill:rgb(212,79,24);"/>
                    <path d="M574.164,297.063C574.21,297.13 575.752,297.533 575.855,299.497C577.181,324.939 575.824,324.865 576.841,350.336C576.862,350.872 576.793,351.407 576.781,351.5C576.506,353.625 577.604,353.214 577.807,353.636C577.334,357.422 577.735,395.488 577.676,396.56C577.57,398.493 575.472,397.042 575.314,396.933C570.761,393.785 528.471,366.603 527.515,365.486C526.017,363.736 526.512,328.944 527.426,327.442C527.609,327.142 564.791,302.919 574.164,297.063Z" style="fill:rgb(221,93,30);"/>
                    <path d="M511.522,492.047C492.948,487.49 503.025,473.319 504.741,471.768C519.03,458.853 534.899,490.639 511.522,492.047Z" style="fill:rgb(225,101,35);"/>
                </g>
            </g>
        </g>
    </g>
</svg>
