<svg width="4087" height="1139" viewBox="0 0 4087 1139" fill="none" xmlns="http://www.w3.org/2000/svg">
<g clip-path="url(#clip0_331_45)">
<path fill-rule="evenodd" clip-rule="evenodd" d="M312.458 1052.1C5.17466 851.093 1.10669 852.482 0.833867 843.72C-0.419491 803.509 0.579978 803.685 0.790672 340.844C0.83119 252.593 -2.66689 247.43 4.73441 248.03C5.72845 248.108 130.262 329.292 135.67 333.918C140.157 337.751 135.87 758.768 137.558 776.043C138.214 782.75 139.705 783.047 305.187 891.214C318.152 899.689 312.139 883.38 311.953 697.627C311.94 683.734 327.369 703.145 441.433 774.694C452.229 781.466 449.115 792.263 448.98 849.097C448.296 1133.56 451.832 1139.05 444.936 1138.45C443.256 1138.31 362.287 1086.22 312.458 1052.1Z" fill="#D5571D"/>
<path fill-rule="evenodd" clip-rule="evenodd" d="M668.933 894.52C750.858 841.117 750.78 841.452 833.201 788.5C843.064 782.166 840.751 779.546 840.959 694.996C840.951 579.652 840.943 464.307 840.935 348.962C840.951 327.419 847.629 330.13 865.627 318.157C871.024 314.567 973.351 247.397 974.491 247.424C980.215 247.568 977.235 251.863 977.621 632.817C977.819 829.516 979.952 829.508 977.883 846.475C976.824 855.153 941.69 871.841 822.842 951.406C750.069 1000.13 679.109 1044.33 666.475 1052.2C666.067 1051.39 664.363 1052.01 663.955 1051.2C663.939 1051.17 664.406 1051.17 664.152 965.334C663.958 900.333 663.571 899.281 668.933 894.52Z" fill="#F0964D"/>
<path fill-rule="evenodd" clip-rule="evenodd" d="M311.958 470.617C311.729 361.187 312.701 360.433 309.692 357.249C305.797 353.126 301.332 351.523 249.774 317.573C3.94559 155.7 2.32759 156.405 1.2309 151.777C0.27738 147.754 0.963497 17.2298 1.02292 5.53201C1.10936 -10.694 11.7062 4.50198 196.228 124.894C277.045 177.492 357.863 230.093 438.68 282.691C451.581 291.136 449.587 294.029 449.642 348.954C449.677 386.251 452.31 389.29 438.607 398.995C428.515 406.143 320.98 476.462 317.79 478.281C311.977 481.598 312.842 477.224 311.958 470.617Z" fill="#ED9B64"/>
<path fill-rule="evenodd" clip-rule="evenodd" d="M657.437 207.195C971.738 0.968762 971.552 -0.0774377 974.386 0.00366521C977.703 0.0955819 977.632 12.6016 977.627 13.729C976.827 152.861 978.807 154.237 974.529 157.192C929.454 188.327 928.265 186.005 882.728 216.765C752.26 304.889 688.822 340.279 667.278 360.136C666.729 358.995 663.763 360.106 664.506 354.361C664.539 354.11 664.725 352.664 664.668 351.215C661.921 282.355 665.587 282.556 662.005 213.775C661.727 208.465 657.561 207.376 657.437 207.195Z" fill="#E36920"/>
<path fill-rule="evenodd" clip-rule="evenodd" d="M668.933 894.521C663.571 899.281 663.958 900.333 664.152 965.334C664.406 1051.17 663.939 1051.17 663.955 1051.2C664.363 1052.01 666.067 1051.39 666.475 1052.2C650.265 1063.73 535.837 1137.05 533.943 1137.89C528.309 1140.36 529.589 1134.54 529.489 965.334C529.481 950.847 529.384 789.76 529.689 784.25C530.21 774.853 578.068 749.909 658.696 695.599C663.709 692.22 666.078 695.28 666.116 697.749C667.494 785.418 665.832 871.836 665.543 886.973C665.424 893.166 667.302 892.342 668.933 894.521Z" fill="#F2B384"/>
<path fill-rule="evenodd" clip-rule="evenodd" d="M420.12 667.957C420.677 555.959 421.128 556.008 420.725 546.283C420.247 534.669 373.54 574.488 366.566 573.439C362.714 572.861 363.768 571.093 365.034 524.729C365.296 515.156 378.673 511.304 463.634 454.05C483.858 440.422 485.489 433.845 500.967 444.578C548.414 477.47 604.399 512.244 611.252 517.695C614.407 520.206 613.486 520.941 613.761 568.07C613.848 582.38 605.928 569.992 563.597 544.004C562.781 543.504 557.479 540.249 557.727 554.423C557.776 557.062 558.735 673.066 558.597 673.453C555.504 682.269 496.696 631.671 488.377 633.802C480.008 635.945 431.403 671.009 426.606 674.472C421.066 678.468 420.79 674.526 420.12 667.957Z" fill="#D44F18"/>
<path fill-rule="evenodd" clip-rule="evenodd" d="M657.437 207.195C657.561 207.376 661.727 208.465 662.005 213.775C665.587 282.556 661.921 282.355 664.668 351.215C664.725 352.664 664.539 354.11 664.506 354.361C663.763 360.106 666.729 358.995 667.278 360.136C666 370.371 667.083 473.28 666.924 476.178C666.637 481.404 660.97 477.481 660.544 477.186C648.245 468.676 534.011 395.191 531.429 392.172C527.382 387.441 528.719 293.383 531.188 289.322C531.683 288.511 632.119 223.026 657.437 207.195Z" fill="#DD5D1E"/>
<path fill-rule="evenodd" clip-rule="evenodd" d="M488.228 734.321C438.056 722.001 465.276 683.691 469.911 679.498C508.509 644.583 551.374 730.514 488.228 734.321Z" fill="#E16523"/>
</g>
<path d="M1489.4 716.4C1456.27 716.4 1425.7 710.333 1397.7 698.2C1370.17 685.6 1347.53 667.867 1329.8 645L1392.8 569.4C1406.33 587.133 1420.57 600.667 1435.5 610C1450.43 618.867 1466.53 623.3 1483.8 623.3C1530 623.3 1553.1 596.233 1553.1 542.1V309H1380.9V218H1665.8V535.8C1665.8 596.467 1650.87 641.733 1621 671.6C1591.13 701.467 1547.27 716.4 1489.4 716.4ZM1929.01 713.6C1897.74 713.6 1869.74 707.533 1845.01 695.4C1820.74 683.267 1801.84 664.833 1788.31 640.1C1774.78 614.9 1768.01 582.933 1768.01 544.2V331.4H1877.21V528.1C1877.21 559.367 1883.74 582.467 1896.81 597.4C1910.34 611.867 1929.24 619.1 1953.51 619.1C1970.31 619.1 1985.24 615.6 1998.31 608.6C2011.38 601.133 2021.64 589.933 2029.11 575C2036.58 559.6 2040.31 540.467 2040.31 517.6V331.4H2149.51V708H2045.91V604.4L2064.81 634.5C2052.21 660.633 2033.54 680.467 2008.81 694C1984.54 707.067 1957.94 713.6 1929.01 713.6ZM2250.68 708V188.6H2359.88V708H2250.68ZM2461.22 708V188.6H2570.42V708H2461.22ZM2853.8 713.6C2809.47 713.6 2774.93 702.4 2750.2 680C2725.47 657.133 2713.1 623.3 2713.1 578.5V248.1H2822.3V577.1C2822.3 592.967 2826.5 605.333 2834.9 614.2C2843.3 622.6 2854.73 626.8 2869.2 626.8C2886.47 626.8 2901.17 622.133 2913.3 612.8L2942.7 689.8C2931.5 697.733 2917.97 703.8 2902.1 708C2886.7 711.733 2870.6 713.6 2853.8 713.6ZM2655 423.8V339.8H2916.1V423.8H2655ZM3083.26 708L2947.46 331.4H3050.36L3163.06 655.5H3114.06L3231.66 331.4H3324.06L3438.16 655.5H3389.16L3505.36 331.4H3601.96L3465.46 708H3359.76L3259.66 430.1H3291.86L3188.26 708H3083.26ZM3881.63 325.8C3911.49 325.8 3938.09 331.867 3961.43 344C3985.23 355.667 4003.89 373.867 4017.43 398.6C4030.96 422.867 4037.73 454.133 4037.73 492.4V708H3928.53V509.2C3928.53 478.867 3921.76 456.467 3908.23 442C3895.16 427.533 3876.49 420.3 3852.23 420.3C3834.96 420.3 3819.33 424.033 3805.33 431.5C3791.79 438.5 3781.06 449.467 3773.13 464.4C3765.66 479.333 3761.93 498.467 3761.93 521.8V708H3652.73V331.4H3757.03V435.7L3737.43 404.2C3750.96 379 3770.33 359.633 3795.53 346.1C3820.73 332.567 3849.43 325.8 3881.63 325.8Z" fill="url(#paint0_linear_331_45)"/>
<path d="M1391 978V850.8H1341.8V838H1455V850.8H1405.8V978H1391ZM1635.31 979C1624.37 979 1614.77 976.733 1606.51 972.2C1598.24 967.533 1591.77 961.2 1587.11 953.2C1582.44 945.067 1580.11 935.8 1580.11 925.4C1580.11 915 1582.31 905.8 1586.71 897.8C1591.24 889.8 1597.37 883.533 1605.11 879C1612.97 874.333 1621.77 872 1631.51 872C1641.37 872 1650.11 874.267 1657.71 878.8C1665.44 883.2 1671.51 889.467 1675.91 897.6C1680.31 905.6 1682.51 914.867 1682.51 925.4C1682.51 926.067 1682.44 926.8 1682.31 927.6C1682.31 928.267 1682.31 929 1682.31 929.8H1590.91V919.2H1674.71L1669.11 923.4C1669.11 915.8 1667.44 909.067 1664.11 903.2C1660.91 897.2 1656.51 892.533 1650.91 889.2C1645.31 885.867 1638.84 884.2 1631.51 884.2C1624.31 884.2 1617.84 885.867 1612.11 889.2C1606.37 892.533 1601.91 897.2 1598.71 903.2C1595.51 909.2 1593.91 916.067 1593.91 923.8V926C1593.91 934 1595.64 941.067 1599.11 947.2C1602.71 953.2 1607.64 957.933 1613.91 961.4C1620.31 964.733 1627.57 966.4 1635.71 966.4C1642.11 966.4 1648.04 965.267 1653.51 963C1659.11 960.733 1663.91 957.267 1667.91 952.6L1675.91 961.8C1671.24 967.4 1665.37 971.667 1658.31 974.6C1651.37 977.533 1643.71 979 1635.31 979ZM1881.01 979C1870.61 979 1861.28 976.733 1853.01 972.2C1844.88 967.533 1838.48 961.2 1833.81 953.2C1829.14 945.067 1826.81 935.8 1826.81 925.4C1826.81 914.867 1829.14 905.6 1833.81 897.6C1838.48 889.6 1844.88 883.333 1853.01 878.8C1861.28 874.267 1870.61 872 1881.01 872C1889.94 872 1898.01 873.733 1905.21 877.2C1912.41 880.667 1918.08 885.867 1922.21 892.8L1911.61 900C1908.01 894.667 1903.54 890.733 1898.21 888.2C1892.88 885.667 1887.08 884.4 1880.81 884.4C1873.34 884.4 1866.61 886.133 1860.61 889.6C1854.61 892.933 1849.88 897.667 1846.41 903.8C1842.94 909.933 1841.21 917.133 1841.21 925.4C1841.21 933.667 1842.94 940.867 1846.41 947C1849.88 953.133 1854.61 957.933 1860.61 961.4C1866.61 964.733 1873.34 966.4 1880.81 966.4C1887.08 966.4 1892.88 965.133 1898.21 962.6C1903.54 960.067 1908.01 956.2 1911.61 951L1922.21 958.2C1918.08 965 1912.41 970.2 1905.21 973.8C1898.01 977.267 1889.94 979 1881.01 979ZM2128.14 872C2136.68 872 2144.14 873.667 2150.54 877C2157.08 880.2 2162.14 885.133 2165.74 891.8C2169.48 898.467 2171.34 906.867 2171.34 917V978H2157.14V918.4C2157.14 907.333 2154.34 899 2148.74 893.4C2143.28 887.667 2135.54 884.8 2125.54 884.8C2118.08 884.8 2111.54 886.333 2105.94 889.4C2100.48 892.333 2096.21 896.667 2093.14 902.4C2090.21 908 2088.74 914.8 2088.74 922.8V978H2074.54V829.6H2088.74V901.8L2085.94 896.4C2089.28 888.8 2094.61 882.867 2101.94 878.6C2109.28 874.2 2118.01 872 2128.14 872ZM2389.3 872C2397.83 872 2405.3 873.667 2411.7 877C2418.23 880.2 2423.3 885.133 2426.9 891.8C2430.63 898.467 2432.5 906.867 2432.5 917V978H2418.3V918.4C2418.3 907.333 2415.5 899 2409.9 893.4C2404.43 887.667 2396.7 884.8 2386.7 884.8C2379.23 884.8 2372.7 886.333 2367.1 889.4C2361.63 892.333 2357.37 896.667 2354.3 902.4C2351.37 908 2349.9 914.8 2349.9 922.8V978H2335.7V873H2349.3V901.8L2347.1 896.4C2350.43 888.8 2355.77 882.867 2363.1 878.6C2370.43 874.2 2379.17 872 2389.3 872ZM2639.65 979C2629.52 979 2620.39 976.733 2612.25 972.2C2604.25 967.533 2597.92 961.2 2593.25 953.2C2588.59 945.067 2586.25 935.8 2586.25 925.4C2586.25 914.867 2588.59 905.6 2593.25 897.6C2597.92 889.6 2604.25 883.333 2612.25 878.8C2620.25 874.267 2629.39 872 2639.65 872C2650.05 872 2659.25 874.267 2667.25 878.8C2675.39 883.333 2681.72 889.6 2686.25 897.6C2690.92 905.6 2693.25 914.867 2693.25 925.4C2693.25 935.8 2690.92 945.067 2686.25 953.2C2681.72 961.2 2675.39 967.533 2667.25 972.2C2659.12 976.733 2649.92 979 2639.65 979ZM2639.65 966.4C2647.25 966.4 2653.99 964.733 2659.85 961.4C2665.72 957.933 2670.32 953.133 2673.65 947C2677.12 940.733 2678.85 933.533 2678.85 925.4C2678.85 917.133 2677.12 909.933 2673.65 903.8C2670.32 897.667 2665.72 892.933 2659.85 889.6C2653.99 886.133 2647.32 884.4 2639.85 884.4C2632.39 884.4 2625.72 886.133 2619.85 889.6C2613.99 892.933 2609.32 897.667 2605.85 903.8C2602.39 909.933 2600.65 917.133 2600.65 925.4C2600.65 933.533 2602.39 940.733 2605.85 947C2609.32 953.133 2613.99 957.933 2619.85 961.4C2625.72 964.733 2632.32 966.4 2639.65 966.4ZM2848.25 978V829.6H2862.45V978H2848.25ZM3070.76 979C3060.62 979 3051.49 976.733 3043.36 972.2C3035.36 967.533 3029.02 961.2 3024.36 953.2C3019.69 945.067 3017.36 935.8 3017.36 925.4C3017.36 914.867 3019.69 905.6 3024.36 897.6C3029.02 889.6 3035.36 883.333 3043.36 878.8C3051.36 874.267 3060.49 872 3070.76 872C3081.16 872 3090.36 874.267 3098.36 878.8C3106.49 883.333 3112.82 889.6 3117.36 897.6C3122.02 905.6 3124.36 914.867 3124.36 925.4C3124.36 935.8 3122.02 945.067 3117.36 953.2C3112.82 961.2 3106.49 967.533 3098.36 972.2C3090.22 976.733 3081.02 979 3070.76 979ZM3070.76 966.4C3078.36 966.4 3085.09 964.733 3090.96 961.4C3096.82 957.933 3101.42 953.133 3104.76 947C3108.22 940.733 3109.96 933.533 3109.96 925.4C3109.96 917.133 3108.22 909.933 3104.76 903.8C3101.42 897.667 3096.82 892.933 3090.96 889.6C3085.09 886.133 3078.42 884.4 3070.96 884.4C3063.49 884.4 3056.82 886.133 3050.96 889.6C3045.09 892.933 3040.42 897.667 3036.96 903.8C3033.49 909.933 3031.76 917.133 3031.76 925.4C3031.76 933.533 3033.49 940.733 3036.96 947C3040.42 953.133 3045.09 957.933 3050.96 961.4C3056.82 964.733 3063.42 966.4 3070.76 966.4ZM3324.15 1017.8C3314.55 1017.8 3305.35 1016.4 3296.55 1013.6C3287.75 1010.8 3280.61 1006.8 3275.15 1001.6L3282.35 990.8C3287.28 995.2 3293.35 998.667 3300.55 1001.2C3307.88 1003.87 3315.61 1005.2 3323.75 1005.2C3337.08 1005.2 3346.88 1002.07 3353.15 995.8C3359.41 989.667 3362.55 980.067 3362.55 967V940.8L3364.55 922.8L3363.15 904.8V873H3376.75V965.2C3376.75 983.333 3372.28 996.6 3363.35 1005C3354.55 1013.53 3341.48 1017.8 3324.15 1017.8ZM3321.55 974C3311.55 974 3302.55 971.867 3294.55 967.6C3286.55 963.2 3280.21 957.133 3275.55 949.4C3271.01 941.667 3268.75 932.8 3268.75 922.8C3268.75 912.8 3271.01 904 3275.55 896.4C3280.21 888.667 3286.55 882.667 3294.55 878.4C3302.55 874.133 3311.55 872 3321.55 872C3330.88 872 3339.28 873.933 3346.75 877.8C3354.21 881.667 3360.15 887.4 3364.55 895C3368.95 902.6 3371.15 911.867 3371.15 922.8C3371.15 933.733 3368.95 943 3364.55 950.6C3360.15 958.2 3354.21 964 3346.75 968C3339.28 972 3330.88 974 3321.55 974ZM3322.95 961.4C3330.68 961.4 3337.55 959.8 3343.55 956.6C3349.55 953.267 3354.28 948.733 3357.75 943C3361.21 937.133 3362.95 930.4 3362.95 922.8C3362.95 915.2 3361.21 908.533 3357.75 902.8C3354.28 897.067 3349.55 892.6 3343.55 889.4C3337.55 886.067 3330.68 884.4 3322.95 884.4C3315.35 884.4 3308.48 886.067 3302.35 889.4C3296.35 892.6 3291.61 897.067 3288.15 902.8C3284.81 908.533 3283.15 915.2 3283.15 922.8C3283.15 930.4 3284.81 937.133 3288.15 943C3291.61 948.733 3296.35 953.267 3302.35 956.6C3308.48 959.8 3315.35 961.4 3322.95 961.4ZM3542.26 978V873H3556.46V978H3542.26ZM3549.46 849.8C3546.53 849.8 3544.06 848.8 3542.06 846.8C3540.06 844.8 3539.06 842.4 3539.06 839.6C3539.06 836.8 3540.06 834.467 3542.06 832.6C3544.06 830.6 3546.53 829.6 3549.46 829.6C3552.39 829.6 3554.86 830.533 3556.86 832.4C3558.86 834.267 3559.86 836.6 3559.86 839.4C3559.86 842.333 3558.86 844.8 3556.86 846.8C3554.99 848.8 3552.53 849.8 3549.46 849.8ZM3766.57 979C3755.64 979 3746.04 976.733 3737.77 972.2C3729.51 967.533 3723.04 961.2 3718.37 953.2C3713.71 945.067 3711.37 935.8 3711.37 925.4C3711.37 915 3713.57 905.8 3717.97 897.8C3722.51 889.8 3728.64 883.533 3736.37 879C3744.24 874.333 3753.04 872 3762.77 872C3772.64 872 3781.37 874.267 3788.97 878.8C3796.71 883.2 3802.77 889.467 3807.17 897.6C3811.57 905.6 3813.77 914.867 3813.77 925.4C3813.77 926.067 3813.71 926.8 3813.57 927.6C3813.57 928.267 3813.57 929 3813.57 929.8H3722.17V919.2H3805.97L3800.37 923.4C3800.37 915.8 3798.71 909.067 3795.37 903.2C3792.17 897.2 3787.77 892.533 3782.17 889.2C3776.57 885.867 3770.11 884.2 3762.77 884.2C3755.57 884.2 3749.11 885.867 3743.37 889.2C3737.64 892.533 3733.17 897.2 3729.97 903.2C3726.77 909.2 3725.17 916.067 3725.17 923.8V926C3725.17 934 3726.91 941.067 3730.37 947.2C3733.97 953.2 3738.91 957.933 3745.17 961.4C3751.57 964.733 3758.84 966.4 3766.97 966.4C3773.37 966.4 3779.31 965.267 3784.77 963C3790.37 960.733 3795.17 957.267 3799.17 952.6L3807.17 961.8C3802.51 967.4 3796.64 971.667 3789.57 974.6C3782.64 977.533 3774.97 979 3766.57 979ZM3996.88 979C3988.21 979 3980.01 977.8 3972.28 975.4C3964.54 972.867 3958.48 969.733 3954.08 966L3960.48 954.8C3964.74 958 3970.21 960.8 3976.88 963.2C3983.54 965.467 3990.54 966.6 3997.88 966.6C4007.88 966.6 4015.08 965.067 4019.48 962C4023.88 958.8 4026.08 954.6 4026.08 949.4C4026.08 945.533 4024.81 942.533 4022.28 940.4C4019.88 938.133 4016.68 936.467 4012.68 935.4C4008.68 934.2 4004.21 933.2 3999.28 932.4C3994.34 931.6 3989.41 930.667 3984.48 929.6C3979.68 928.533 3975.28 927 3971.28 925C3967.28 922.867 3964.01 920 3961.48 916.4C3959.08 912.8 3957.88 908 3957.88 902C3957.88 896.267 3959.48 891.133 3962.68 886.6C3965.88 882.067 3970.54 878.533 3976.68 876C3982.94 873.333 3990.54 872 3999.48 872C4006.28 872 4013.08 872.933 4019.88 874.8C4026.68 876.533 4032.28 878.867 4036.68 881.8L4030.48 893.2C4025.81 890 4020.81 887.733 4015.48 886.4C4010.14 884.933 4004.81 884.2 3999.48 884.2C3990.01 884.2 3983.01 885.867 3978.48 889.2C3974.08 892.4 3971.88 896.533 3971.88 901.6C3971.88 905.6 3973.08 908.733 3975.48 911C3978.01 913.267 3981.28 915.067 3985.28 916.4C3989.41 917.6 3993.88 918.6 3998.68 919.4C4003.61 920.2 4008.48 921.2 4013.28 922.4C4018.21 923.467 4022.68 925 4026.68 927C4030.81 928.867 4034.08 931.6 4036.48 935.2C4039.01 938.667 4040.28 943.267 4040.28 949C4040.28 955.133 4038.54 960.467 4035.08 965C4031.74 969.4 4026.81 972.867 4020.28 975.4C4013.88 977.8 4006.08 979 3996.88 979Z" fill="url(#paint1_linear_331_45)"/>
<defs>
<linearGradient id="paint0_linear_331_45" x1="1341" y1="457.5" x2="4087" y2="457.5" gradientUnits="userSpaceOnUse">
<stop stop-color="#E15600"/>
<stop offset="1" stop-color="#F0700A"/>
</linearGradient>
<linearGradient id="paint1_linear_331_45" x1="1341" y1="906" x2="4047" y2="906" gradientUnits="userSpaceOnUse">
<stop stop-color="#F38D32"/>
<stop offset="1" stop-color="#F0700A"/>
</linearGradient>
<clipPath id="clip0_331_45">
<rect width="979" height="1139" fill="white"/>
</clipPath>
</defs>
</svg>
