<?xml version="1.0" encoding="UTF-8" standalone="no"?>
<!DOCTYPE svg PUBLIC "-//W3C//DTD SVG 1.1//EN" "http://www.w3.org/Graphics/SVG/1.1/DTD/svg11.dtd">
<svg width="100%" height="100%" viewBox="0 0 1525 1773" version="1.1" xmlns="http://www.w3.org/2000/svg" xmlns:xlink="http://www.w3.org/1999/xlink" xml:space="preserve" xmlns:serif="http://www.serif.com/" style="fill-rule:evenodd;clip-rule:evenodd;stroke-linejoin:round;stroke-miterlimit:2;">
    <g transform="matrix(1,0,0,1,-4800.127705,-9128.457389)">
        <g transform="matrix(4.209153,0,0,4.209153,3407.984931,8199.590777)">
            <path d="M456.419,616.62C331.863,535.207 331.458,535.202 331.085,533.583C330.452,530.834 330.881,394.59 330.919,382.503C331.135,313.851 330.534,312.389 332.498,312.523C333.082,312.563 380.277,343.706 380.314,343.737C382.303,345.351 381.631,346.915 381.645,479.5C381.648,506.988 380.037,508.583 386.749,513.129C391.336,516.235 439.721,549.003 444.675,551.082C450.036,553.333 444.407,547.555 446.236,478.425C446.352,474.03 449.033,478.216 493.291,506.824C497.682,509.662 496.913,510.781 496.882,541.5C496.782,640.345 497.597,641.94 495.486,641.884C494.521,641.858 460.076,619.063 456.419,616.62Z" style="fill:white;"/>
            <path d="M568.556,615.587C565.366,617.686 529.426,641.338 528.521,641.577C525.92,642.264 526.743,639.936 526.582,550.5C526.509,509.576 526.812,509.108 528.733,507.837C532.452,505.376 574.391,477.624 575.498,477.487C577.653,477.22 577.079,478.879 577.151,542.5C577.157,547.025 576.151,552.88 579.542,550.587C610.304,529.784 641.756,512.535 641.889,508.532C642.418,492.621 640.591,346.123 642.858,343.886C645.87,340.914 646.484,341.792 687.188,315.032C692.298,311.672 692.516,314.069 692.518,314.498C692.6,332.154 693.535,533.131 692.067,535.206C690.817,536.973 608.005,589.801 568.556,615.587Z" style="fill:white;"/>
            <path d="M451.593,395.653C448.303,397.654 448.082,399.606 446.422,397.557C444.871,395.642 448.728,355.011 444.169,351.982C401.673,323.755 331.516,279.983 331.155,276.547C330.99,274.974 331.255,227.629 331.099,223.48C330.77,214.733 335.874,224.519 424.329,280.765C430.173,284.481 495.339,325.918 496.569,328.461C496.572,328.469 499.311,363.992 495.142,367.012C488.32,371.954 455.097,393.392 451.593,395.653Z" style="fill:white;"/>
            <path d="M572.421,395.623C568.835,393.288 528.491,367.01 527.697,366.268C525.528,364.238 526.015,328.851 527.507,327.507C527.519,327.497 601.108,279.672 607.508,275.513C690.781,221.394 691.403,220.599 692.235,221.687C692.601,222.165 692.546,276.268 692.247,277.431C691.513,280.296 586.514,346.714 578.664,352.701C576.322,354.487 577.664,379.011 577.457,396.493C577.417,399.933 573.124,396.134 572.421,395.623Z" style="fill:white;"/>
            <path d="M552.545,409.428C560.476,415.183 557.629,417.473 557.69,424.498C557.696,425.178 557.763,432.879 556.512,432.909C554.993,432.946 537.592,419.398 536.876,422.594C536.62,423.738 537.342,464.821 537.406,468.493C537.508,474.274 520.9,459.777 513.37,455.758C509.011,453.431 486.376,474.909 486.164,469.613C486.016,465.928 486.635,466.006 486.443,423.509C486.416,417.544 465.652,437.395 465.73,431.472C465.966,413.524 465.832,413.078 467.684,411.754C467.862,411.627 506.336,386.052 509.698,383.818C511.77,382.44 513.888,383.797 514.19,383.991C517.291,385.976 517.104,386.114 552.545,409.428Z" style="fill:white;"/>
            <path d="M512.496,469.63C537.623,475.244 514.066,503.745 502.926,488.175C499.346,483.171 498.556,470.743 512.496,469.63Z" style="fill:white;"/>
        </g>
    </g>
</svg>
